<?xml version="1.0" encoding="utf-8"?>
<!-- Generator: Adobe Illustrator 26.5.1, SVG Export Plug-In . SVG Version: 6.00 Build 0)  -->
<svg version="1.1" id="Layer_1" xmlns="http://www.w3.org/2000/svg" xmlns:xlink="http://www.w3.org/1999/xlink" x="0px" y="0px"
	 viewBox="0 0 221 111.7" style="enable-background:new 0 0 221 111.7;" xml:space="preserve">
<style type="text/css">
	.st0{fill:none;stroke:#000000;stroke-miterlimit:10;}
</style>
<line class="st0" x1="0" y1="113" x2="29.7" y2="43.5"/>
<line class="st0" x1="72.5" y1="110.1" x2="29.7" y2="43.5"/>
<line class="st0" x1="122.5" y1="41.3" x2="72.5" y2="110.1"/>
<line class="st0" x1="156.5" y1="107.2" x2="122.5" y2="41.3"/>
<line class="st0" x1="208.7" y1="37" x2="156.5" y2="107.2"/>
<line class="st0" x1="219.6" y1="110.9" x2="208.7" y2="37"/>
<line class="st0" x1="0" y1="113" x2="219.6" y2="110.9"/>
<line class="st0" x1="43.7" y1="65.3" x2="62.3" y2="2.9"/>
<line class="st0" x1="98.5" y1="74.3" x2="62.3" y2="2.9"/>
<line class="st0" x1="181" y1="74.3" x2="148.6" y2="15.2"/>
<line class="st0" x1="129" y1="54" x2="148.6" y2="15.2"/>
<line class="st0" x1="85.6" y1="48.9" x2="115.9" y2="26.8"/>
<line class="st0" x1="133.7" y1="44.7" x2="115.9" y2="26.8"/>
<line class="st0" x1="35" y1="51.8" x2="39.1" y2="18.1"/>
<line class="st0" x1="49.8" y1="44.7" x2="39.1" y2="18.1"/>
<line class="st0" x1="168.7" y1="51.9" x2="177.5" y2="10.1"/>
<line class="st0" x1="197" y1="52.7" x2="177.5" y2="10.1"/>
<line class="st0" x1="29.7" y1="43.5" x2="18" y2="112"/>
<line class="st0" x1="62.3" y1="2.9" x2="49.8" y2="72.1"/>
<line class="st0" x1="39.1" y1="18.1" x2="43.7" y2="65.3"/>
<line class="st0" x1="29.7" y1="43.5" x2="48" y2="112"/>
<line class="st0" x1="49.8" y1="72.1" x2="51.1" y2="76.8"/>
<line class="st0" x1="62.3" y1="2.9" x2="72.5" y2="110.1"/>
<line class="st0" x1="115.9" y1="26.8" x2="89.2" y2="55.9"/>
<line class="st0" x1="122.5" y1="41.3" x2="85.6" y2="112"/>
<line class="st0" x1="115.9" y1="26.8" x2="106.3" y2="63.5"/>
<line class="st0" x1="148.6" y1="15.2" x2="133" y2="61.7"/>
<line class="st0" x1="62.3" y1="2.9" x2="93.2" y2="81.6"/>
<line class="st0" x1="122.5" y1="41.3" x2="129" y2="113"/>
<line class="st0" x1="72.5" y1="110.1" x2="70.6" y2="113"/>
<line class="st0" x1="208.7" y1="37" x2="166.4" y2="111.4"/>
<line class="st0" x1="115.9" y1="26.8" x2="131.6" y2="48.9"/>
<line class="st0" x1="148.6" y1="15.2" x2="151.9" y2="98.3"/>
<line class="st0" x1="177.5" y1="10.1" x2="164.8" y2="43.5"/>
<line class="st0" x1="156.5" y1="107.2" x2="153.7" y2="110.9"/>
<line class="st0" x1="208.7" y1="37" x2="202.9" y2="110.9"/>
</svg>
