<?xml version="1.0" encoding="utf-8"?>
<!-- Generator: Adobe Illustrator 26.5.1, SVG Export Plug-In . SVG Version: 6.00 Build 0)  -->
<svg version="1.1" id="Layer_1" xmlns="http://www.w3.org/2000/svg" xmlns:xlink="http://www.w3.org/1999/xlink" x="0px" y="0px"
	 viewBox="0 0 199.3 173.9" style="enable-background:new 0 0 199.3 173.9;" xml:space="preserve">
<style type="text/css">
	.st0{fill:none;stroke:#000000;stroke-miterlimit:10;}
</style>
<line class="st0" x1="28.3" y1="106.5" x2="54.3" y2="31.9"/>
<line class="st0" x1="105.1" y1="102.9" x2="54.3" y2="31.9"/>
<line class="st0" x1="150.7" y1="52.2" x2="105.1" y2="102.9"/>
<line class="st0" x1="163.8" y1="161.6" x2="150.7" y2="52.2"/>
<line class="st0" x1="1.8" y1="172.2" x2="28.3" y2="106.5"/>
<line class="st0" x1="163.8" y1="161.6" x2="1.8" y2="172.2"/>
<line class="st0" x1="246.4" y1="226.1" x2="247.1" y2="226.1"/>
<line class="st0" x1="82.8" y1="71.7" x2="89.9" y2="0.7"/>
<line class="st0" x1="135.4" y1="69.2" x2="89.9" y2="0.7"/>
<line class="st0" x1="11.8" y1="147.5" x2="15.1" y2="54.3"/>
<line class="st0" x1="31.5" y1="97.2" x2="15.1" y2="54.3"/>
<line class="st0" x1="158.6" y1="118.1" x2="178.3" y2="47.1"/>
<line class="st0" x1="198.6" y1="152.9" x2="178.3" y2="47.1"/>
<line class="st0" x1="154.3" y1="162.2" x2="198.6" y2="152.9"/>
<line class="st0" x1="15.1" y1="54.3" x2="39" y2="75.8"/>
<line class="st0" x1="89.9" y1="0.7" x2="73.6" y2="58.8"/>
<line class="st0" x1="178.3" y1="47.1" x2="155.3" y2="90.4"/>
<line class="st0" x1="150.7" y1="52.2" x2="99.6" y2="165.8"/>
<line class="st0" x1="105.1" y1="102.9" x2="40" y2="169.7"/>
<line class="st0" x1="150.7" y1="52.2" x2="144.4" y2="162.2"/>
<line class="st0" x1="54.3" y1="31.9" x2="23.3" y2="170.8"/>
<line class="st0" x1="89.9" y1="0.7" x2="123.3" y2="82.6"/>
<line class="st0" x1="54.3" y1="31.9" x2="81.7" y2="126.9"/>
<line class="st0" x1="15.1" y1="54.3" x2="23.3" y2="118.1"/>
<line class="st0" x1="89.9" y1="0.7" x2="105.1" y2="102.9"/>
<line class="st0" x1="178.3" y1="47.1" x2="188.4" y2="155"/>
<line class="st0" x1="150.7" y1="52.2" x2="86.3" y2="166.9"/>
</svg>
