<?xml version="1.0" encoding="utf-8"?>
<!-- Generator: Adobe Illustrator 26.5.1, SVG Export Plug-In . SVG Version: 6.00 Build 0)  -->
<svg version="1.1" id="Layer_1" xmlns="http://www.w3.org/2000/svg" xmlns:xlink="http://www.w3.org/1999/xlink" x="0px" y="0px"
	 viewBox="0 0 130.4 180.4" style="enable-background:new 0 0 130.4 180.4;" xml:space="preserve">
<style type="text/css">
	.st0{fill:none;stroke:#000000;stroke-miterlimit:10;}
</style>
<line class="st0" x1="0" y1="171" x2="9.4" y2="3.6"/>
<line class="st0" x1="49.3" y1="168.1" x2="9.4" y2="3.6"/>
<line class="st0" x1="68.8" y1="24.6" x2="35.9" y2="112.9"/>
<line class="st0" x1="87" y1="173.1" x2="68.8" y2="24.6"/>
<line class="st0" x1="112.3" y1="20.2" x2="77.9" y2="90.5"/>
<line class="st0" x1="129.7" y1="163.7" x2="112.3" y2="20.2"/>
<line class="st0" x1="0" y1="171" x2="21.7" y2="177.5"/>
<line class="st0" x1="49.3" y1="168.1" x2="21.7" y2="177.5"/>
<line class="st0" x1="87" y1="173.1" x2="49.3" y2="168.1"/>
<line class="st0" x1="129.7" y1="163.7" x2="87" y2="173.1"/>
<line class="st0" x1="27.5" y1="78.2" x2="35.5" y2="5"/>
<line class="st0" x1="52.4" y1="65.2" x2="35.5" y2="5"/>
<line class="st0" x1="73.1" y1="59.5" x2="81.2" y2="15.9"/>
<line class="st0" x1="95.1" y1="55.4" x2="81.2" y2="15.9"/>
<line class="st0" x1="9.4" y1="3.6" x2="21.7" y2="177.5"/>
<line class="st0" x1="52.4" y1="65.2" x2="53.1" y2="66.8"/>
<line class="st0" x1="35.5" y1="5" x2="35.9" y2="112.9"/>
<line class="st0" x1="68.1" y1="26.5" x2="49.3" y2="168.1"/>
<line class="st0" x1="81.2" y1="15.9" x2="81" y2="84.3"/>
<line class="st0" x1="112.3" y1="20.2" x2="88.1" y2="170.6"/>
<line class="st0" x1="77.9" y1="90.5" x2="77.1" y2="92.5"/>
<line class="st0" x1="9.4" y1="3.6" x2="38.3" y2="171.8"/>
<line class="st0" x1="88.1" y1="170.6" x2="87" y2="173.1"/>
<line class="st0" x1="68.8" y1="24.6" x2="68.8" y2="170.6"/>
<line class="st0" x1="112" y1="22.5" x2="78.5" y2="103.7"/>
<line class="st0" x1="81.2" y1="15.9" x2="100.2" y2="43.5"/>
<line class="st0" x1="35.5" y1="5" x2="46.6" y2="84.3"/>
</svg>
