<?xml version="1.0" encoding="utf-8"?>
<!-- Generator: Adobe Illustrator 26.5.1, SVG Export Plug-In . SVG Version: 6.00 Build 0)  -->
<svg version="1.1" id="Layer_1" xmlns="http://www.w3.org/2000/svg" xmlns:xlink="http://www.w3.org/1999/xlink" x="0px" y="0px"
	 viewBox="0 0 292.9496 189.347" style="enable-background:new 0 0 292.9496 189.347;" xml:space="preserve">
<style type="text/css">
	.st0{fill:#FFFFFF;stroke:#000000;stroke-miterlimit:10;}
	.st1{fill:none;stroke:#000000;stroke-miterlimit:10;}
	.st2{fill:#FFFFFF;stroke:#010101;stroke-miterlimit:10;}
</style>
<polygon class="st0" points="120.1496,180.9197 94.6711,181.8567 81.1204,160.2602 93.0481,137.7267 118.5266,136.7897 
	132.0774,158.3862 "/>
<polygon class="st0" points="157.505,157.5452 132.0265,158.4823 118.4758,136.8858 130.4035,114.3522 155.882,113.4152 
	169.4328,135.0117 "/>
<polygon class="st0" points="196.5342,178.2047 171.0558,179.1417 157.505,157.5452 169.4328,135.0117 194.9113,134.0746 
	208.462,155.6711 "/>
<polygon class="st0" points="234.243,154.1626 208.7645,155.0996 195.2138,133.5031 207.1415,110.9696 232.62,110.0325 
	246.1707,131.629 "/>
<polygon class="st0" points="232.4438,110.3655 206.9653,111.3025 193.4145,89.706 205.3423,67.1725 230.8207,66.2355 
	244.3715,87.832 "/>
<polygon class="st0" points="269.49,86.6859 244.0115,87.6229 230.4607,66.0264 242.3885,43.4929 267.867,42.5558 281.4177,64.1523 
	"/>
<circle class="st0" cx="265.9103" cy="60.5269" r="3.5625"/>
<polyline class="st1" points="285.9258,17.5577 261.5784,41.9051 261.5784,7.8944 "/>
<circle class="st1" cx="261.5784" cy="3.9472" r="3.9472"/>
<circle class="st1" cx="289.0024" cy="14.805" r="3.9472"/>
<polygon class="st0" points="81.1204,160.2602 55.6419,161.1973 42.0912,139.6008 54.0189,117.0672 79.4974,116.1302 
	93.0481,137.7267 "/>
<polygon class="st0" points="43.4657,184.2002 17.9872,185.1373 4.4365,163.5408 16.3642,141.0072 41.8427,140.0702 
	55.3934,161.6667 "/>
<polygon class="st2" points="199.7243,88.064 209.9191,71.8159 229.0879,72.5208 238.0617,89.474 227.8668,105.7221 
	208.6981,105.0171 "/>
<polygon class="st2" points="201.5235,131.8611 211.7184,115.6129 230.8872,116.3179 239.861,133.2711 229.6661,149.5192 
	210.4973,148.8142 "/>
<polygon class="st2" points="163.8148,154.3946 174.0096,138.1465 193.1784,138.8514 202.1522,155.8046 191.9573,172.0527 
	172.7886,171.3477 "/>
<polygon class="st2" points="124.7856,135.2438 134.9804,118.9956 154.1492,119.7006 163.123,136.6538 152.9281,152.9019 
	133.7594,152.1969 "/>
<polygon class="st2" points="86.4481,157.7773 96.643,141.5292 115.8118,142.2341 124.7856,159.1873 114.5907,175.4354 
	95.4219,174.7304 "/>
<polygon class="st2" points="48.4009,137.4415 58.5958,121.1934 77.7646,121.8983 86.7384,138.8515 76.5435,155.0996 
	57.3747,154.3946 "/>
<polygon class="st2" points="10.7462,160.4924 20.9411,144.2442 40.1099,144.9492 49.0837,161.9023 38.8888,178.1505 
	19.72,177.4454 "/>
</svg>
