<?xml version="1.0" encoding="utf-8"?>
<!-- Generator: Adobe Illustrator 26.5.1, SVG Export Plug-In . SVG Version: 6.00 Build 0)  -->
<svg version="1.1" id="Layer_1" xmlns="http://www.w3.org/2000/svg" xmlns:xlink="http://www.w3.org/1999/xlink" x="0px" y="0px"
	 viewBox="0 0 280.3388 168.4061" style="enable-background:new 0 0 280.3388 168.4061;" xml:space="preserve">
<style type="text/css">
	.st0{fill:#FFFFFF;stroke:#000000;stroke-miterlimit:10;}
	.st1{fill:none;stroke:#000000;stroke-miterlimit:10;}
	.st2{fill:#FFFFFF;stroke:#010101;stroke-miterlimit:10;}
</style>
<polygon class="st0" points="115.4138,137.1182 89.9353,138.0552 76.3846,116.4587 88.3123,93.9251 113.7908,92.9881 
	127.3416,114.5846 "/>
<polygon class="st0" points="154.443,157.7776 128.9645,158.7147 115.4138,137.1182 127.3416,114.5846 152.82,113.6476 
	166.3708,135.2441 "/>
<polygon class="st0" points="191.7578,134.4798 166.2793,135.4168 152.7286,113.8203 164.6564,91.2868 190.1348,90.3497 
	203.6856,111.9462 "/>
<polygon class="st0" points="231.181,154.395 205.7025,155.332 192.1518,133.7355 204.0795,111.202 229.558,110.265 
	243.1088,131.8615 "/>
<polygon class="st0" points="268.411,131.2574 242.9325,132.1944 229.3818,110.5979 241.3095,88.0644 266.788,87.1273 
	280.3388,108.7238 "/>
<polygon class="st0" points="266.428,86.9183 240.9495,87.8553 227.3988,66.2588 239.3265,43.7253 264.805,42.7882 
	278.3558,64.3847 "/>
<circle class="st0" cx="262.8483" cy="60.7593" r="3.5625"/>
<polyline class="st1" points="257.3966,8.0715 257.7972,42.5016 233.4698,18.7338 "/>
<circle class="st1" cx="230.6465" cy="15.9754" r="3.9472"/>
<circle class="st1" cx="257.5777" cy="3.9472" r="3.9472"/>
<polygon class="st0" points="78.0584,160.4926 52.58,161.4297 39.0292,139.8332 50.957,117.2997 76.4354,116.3626 89.9862,137.9591 
	"/>
<polygon class="st0" points="39.0292,139.8332 13.5507,140.7702 0,119.1737 11.9277,96.6402 37.4062,95.7032 50.957,117.2997 "/>
<polygon class="st2" points="82.6741,112.9426 92.8689,96.6945 112.0377,97.3994 121.0115,114.3526 110.8166,130.6007 
	91.6479,129.8957 "/>
<polygon class="st2" points="45.339,135.4762 55.5338,119.228 74.7026,119.933 83.6764,136.8861 73.4815,153.1343 54.3128,152.4293 
	"/>
<polygon class="st2" points="6.3098,117.5317 16.5046,101.2836 35.6734,101.9885 44.6472,118.9417 34.4523,135.1898 
	15.2836,134.4848 "/>
<polygon class="st2" points="198.4616,131.4894 208.6564,115.2413 227.8252,115.9462 236.799,132.8994 226.6041,149.1475 
	207.4354,148.4425 "/>
<polygon class="st2" points="159.0384,112.1783 169.2332,95.9301 188.402,96.6351 197.3758,113.5882 187.1809,129.8364 
	168.0122,129.1314 "/>
<polygon class="st2" points="121.9003,134.4848 132.0952,118.2367 151.2639,118.9417 160.2377,135.8948 150.0428,152.1429 
	130.8741,151.4379 "/>
<polygon class="st2" points="235.4027,108.9559 245.5975,92.7077 264.7663,93.4127 273.7401,110.3658 263.5452,126.614 
	244.3765,125.909 "/>
</svg>
