<?xml version="1.0" encoding="utf-8"?>
<!-- Generator: Adobe Illustrator 26.5.1, SVG Export Plug-In . SVG Version: 6.00 Build 0)  -->
<svg version="1.1" id="Layer_1" xmlns="http://www.w3.org/2000/svg" xmlns:xlink="http://www.w3.org/1999/xlink" x="0px" y="0px"
	 viewBox="0 0 294.0487 194" style="enable-background:new 0 0 294.0487 194;" xml:space="preserve">
<style type="text/css">
	.st0{fill:#FFFFFF;stroke:#010101;stroke-miterlimit:10;}
	.st1{fill:none;stroke:#010101;stroke-miterlimit:10;}
</style>
<polygon class="st0" points="166.4078,164.2125 179.9586,142.616 205.4371,143.553 217.3647,166.0865 203.8141,187.683 
	178.3356,186.746 "/>
<polygon class="st0" points="129.0524,140.838 142.6031,119.2415 168.0817,120.1785 180.0094,142.7121 166.4586,164.3086 
	140.9802,163.3715 "/>
<polygon class="st0" points="90.0232,161.4974 103.5739,139.9009 129.0524,140.838 140.9802,163.3715 127.4294,184.968 
	101.951,184.031 "/>
<polygon class="st0" points="52.3145,137.4553 65.8652,115.8588 91.3437,116.7959 103.2714,139.3294 89.7207,160.9259 
	64.2422,159.9889 "/>
<polygon class="st0" points="54.1137,93.6583 67.6645,72.0618 93.1429,72.9988 105.0707,95.5323 91.5199,117.1288 66.0414,116.1918 
	"/>
<polygon class="st0" points="17.0675,69.9786 30.6182,48.3821 56.0967,49.3192 68.0245,71.8527 54.4737,93.4492 28.9952,92.5122 "/>
<circle class="st0" cx="32.5749" cy="66.3532" r="3.5625"/>
<polyline class="st1" points="36.9068,13.7207 36.9068,47.7314 12.5594,23.384 "/>
<circle class="st1" cx="36.9068" cy="9.7735" r="3.9472"/>
<circle class="st1" cx="9.4828" cy="20.6313" r="3.9472"/>
<polygon class="st0" points="205.4371,143.553 218.9878,121.9565 244.4662,122.8935 256.394,145.4271 242.8433,167.0236 
	217.3647,166.0865 "/>
<polygon class="st0" points="243.0918,167.493 256.6425,145.8965 282.121,146.8335 294.0487,169.3671 280.498,190.9636 
	255.0195,190.0265 "/>
<polygon class="st0" points="59.4235,92.8903 69.6183,76.6421 88.7871,77.3471 97.7609,94.3003 87.566,110.5484 68.3973,109.8434 
	"/>
<polygon class="st0" points="56.823,137.6873 67.0179,121.4392 86.1867,122.1441 95.1605,139.0973 84.9656,155.3454 
	65.7969,154.6404 "/>
<polygon class="st0" points="96.333,158.8641 106.5278,142.616 125.6966,143.3209 134.6704,160.2741 124.4755,176.5222 
	105.3068,175.8172 "/>
<polygon class="st0" points="135.3622,137.6873 145.557,121.4392 164.7258,122.1441 173.6996,139.0973 163.5047,155.3454 
	144.336,154.6404 "/>
<polygon class="st0" points="172.8673,163.6036 183.0621,147.3554 202.2309,148.0604 211.2047,165.0136 201.0098,181.2617 
	181.8411,180.5567 "/>
<polygon class="st0" points="211.2047,141.911 221.3996,125.6628 240.5684,126.3678 249.5422,143.321 239.3473,159.5691 
	220.1785,158.8641 "/>
<polygon class="st0" points="247.0365,166.3186 257.2314,150.0704 276.4001,150.7754 285.374,167.7286 275.1791,183.9767 
	256.0103,183.2717 "/>
</svg>
