<?xml version="1.0" encoding="utf-8"?>
<!-- Generator: Adobe Illustrator 26.5.1, SVG Export Plug-In . SVG Version: 6.00 Build 0)  -->
<svg version="1.1" id="Layer_1" xmlns="http://www.w3.org/2000/svg" xmlns:xlink="http://www.w3.org/1999/xlink" x="0px" y="0px"
	 viewBox="0 0 280.3388 161.4297" style="enable-background:new 0 0 280.3388 161.4297;" xml:space="preserve">
<style type="text/css">
	.st0{fill:#FFFFFF;stroke:#010101;stroke-miterlimit:10;}
	.st1{fill:none;stroke:#010101;stroke-miterlimit:10;}
</style>
<polygon class="st0" points="152.9972,114.5846 166.548,92.9881 192.0265,93.9251 203.9542,116.4587 190.4035,138.0552 
	164.925,137.1182 "/>
<polygon class="st0" points="113.968,135.2441 127.5188,113.6476 152.9972,114.5846 164.925,137.1182 151.3743,158.7147 
	125.8958,157.7776 "/>
<polygon class="st0" points="76.6532,111.9462 90.204,90.3497 115.6824,91.2868 127.6102,113.8203 114.0595,135.4168 
	88.581,134.4798 "/>
<polygon class="st0" points="37.23,131.8615 50.7808,110.265 76.2593,111.202 88.187,133.7355 74.6363,155.332 49.1578,154.395 "/>
<polygon class="st0" points="0,108.7238 13.5508,87.1273 39.0293,88.0644 50.957,110.5979 37.4063,132.1944 11.9278,131.2574 "/>
<polygon class="st0" points="1.983,64.3847 15.5338,42.7882 41.0123,43.7253 52.94,66.2588 39.3893,87.8553 13.9108,86.9183 "/>
<circle class="st0" cx="17.4905" cy="60.7593" r="3.5625"/>
<polyline class="st1" points="46.869,18.7338 22.5416,42.5016 22.9422,8.0715 "/>
<circle class="st1" cx="49.6923" cy="15.9754" r="3.9472"/>
<circle class="st1" cx="22.7611" cy="3.9472" r="3.9472"/>
<polygon class="st0" points="190.3526,137.9591 203.9034,116.3626 229.3818,117.2997 241.3096,139.8332 227.7588,161.4297 
	202.2804,160.4926 "/>
<polygon class="st0" points="229.3818,117.2997 242.9326,95.7032 268.4111,96.6402 280.3388,119.1737 266.7881,140.7702 
	241.3096,139.8332 "/>
<polygon class="st0" points="3.5924,108.9559 13.7872,92.7077 32.956,93.4127 41.9298,110.3659 31.7349,126.614 12.5662,125.909 "/>
<polygon class="st0" points="43.5398,131.4895 53.7346,115.2413 72.9034,115.9463 81.8772,132.8994 71.6823,149.1476 
	52.5136,148.4426 "/>
<polygon class="st0" points="235.6916,117.5317 245.8864,101.2836 265.0552,101.9885 274.029,118.9417 263.8341,135.1898 
	244.6654,134.4848 "/>
<polygon class="st0" points="194.222,137.3502 204.4169,121.1021 223.5856,121.807 232.5594,138.7602 222.3645,155.0083 
	203.1958,154.3033 "/>
<polygon class="st0" points="82.8084,112.1783 93.0032,95.9301 112.172,96.6351 121.1458,113.5882 110.9509,129.8364 
	91.7822,129.1314 "/>
<polygon class="st0" points="121.0007,135.4762 131.1955,119.228 150.3643,119.933 159.3381,136.8862 149.1432,153.1343 
	129.9745,152.4293 "/>
<polygon class="st0" points="159.1865,112.1783 169.3814,95.9301 188.5502,96.6351 197.524,113.5882 187.3291,129.8364 
	168.1603,129.1314 "/>
</svg>
