<?xml version="1.0" encoding="utf-8"?>
<!-- Generator: Adobe Illustrator 26.5.1, SVG Export Plug-In . SVG Version: 6.00 Build 0)  -->
<svg version="1.1" id="Layer_1" xmlns="http://www.w3.org/2000/svg" xmlns:xlink="http://www.w3.org/1999/xlink" x="0px" y="0px"
	 viewBox="0 0 212.2759 188.2367" style="enable-background:new 0 0 212.2759 188.2367;" xml:space="preserve">
<style type="text/css">
	.st0{fill:#FFFFFF;stroke:#000000;stroke-miterlimit:10;}
	.st1{fill:none;stroke:#000000;stroke-miterlimit:10;}
	.st2{fill:#FFFFFF;stroke:#010101;stroke-miterlimit:10;}
</style>
<polygon class="st0" points="115.2664,177.0514 89.788,177.9884 76.2372,156.3919 88.165,133.8584 113.6435,132.9213 
	127.1942,154.5178 "/>
<polygon class="st0" points="152.7874,153.3642 127.3089,154.3012 113.7581,132.7047 125.6858,110.1712 151.1643,109.2341 
	164.7151,130.8306 "/>
<polygon class="st0" points="113.7581,132.7047 88.2796,133.6417 74.7289,112.0453 86.6566,89.5117 112.1351,88.5747 
	125.6858,110.1712 "/>
<polygon class="st0" points="111.9121,88.9959 86.4337,89.933 72.8829,68.3365 84.8106,45.8029 110.2891,44.8659 123.8399,66.4624 
	"/>
<polygon class="st0" points="149.2137,65.723 123.7353,66.66 110.1845,45.0635 122.1122,22.53 147.5908,21.593 161.1415,43.1894 "/>
<polygon class="st0" points="188.8162,86.6859 163.3377,87.6229 149.787,66.0264 161.7147,43.4929 187.1932,42.5558 
	200.744,64.1523 "/>
<circle class="st0" cx="188.2749" cy="63.5653" r="6.6008"/>
<polyline class="st1" points="205.2521,17.5577 180.9047,41.9051 180.9047,7.8943 "/>
<circle class="st1" cx="180.9047" cy="3.9472" r="3.9472"/>
<circle class="st1" cx="208.3287" cy="14.805" r="3.9472"/>
<polygon class="st0" points="76.2372,156.3919 50.7587,157.3289 37.208,135.7324 49.1357,113.1989 74.6142,112.2619 
	88.165,133.8584 "/>
<polygon class="st0" points="39.0292,179.9881 13.5507,180.9251 0,159.3286 11.9277,136.7951 37.4062,135.858 50.9569,157.4545 "/>
<circle class="st1" cx="188.2749" cy="63.5653" r="3.9472"/>
<polygon class="st2" points="82.547,110.4032 92.7419,94.1551 111.9106,94.86 120.8844,111.8132 110.6896,128.0613 
	91.5208,127.3563 "/>
<polygon class="st2" points="120.0679,131.0627 130.2628,114.8145 149.4315,115.5195 158.4053,132.4727 148.2104,148.7208 
	129.0417,148.0158 "/>
<polygon class="st2" points="116.4943,43.4215 126.6891,27.1734 145.8579,27.8783 154.8317,44.8315 144.6368,61.0796 
	125.4681,60.3746 "/>
<polygon class="st2" points="82.547,154.7499 92.7419,138.5017 111.9106,139.2067 120.8844,156.1599 110.6896,172.408 
	91.5208,171.703 "/>
<polygon class="st2" points="44.6472,132.2163 54.842,115.9682 74.0108,116.6731 82.9846,133.6263 72.7897,149.8744 
	53.621,149.1694 "/>
<polygon class="st2" points="6.3097,157.6866 16.5046,141.4384 35.6734,142.1434 44.6472,159.0966 34.4523,175.3447 
	15.2835,174.6397 "/>
<polygon class="st2" points="79.1927,65.955 89.3875,49.7069 108.5563,50.4118 117.5301,67.365 107.3352,83.6131 88.1665,82.9081 
	"/>
</svg>
