<?xml version="1.0" encoding="utf-8"?>
<!-- Generator: Adobe Illustrator 26.5.1, SVG Export Plug-In . SVG Version: 6.00 Build 0)  -->
<svg version="1.1" id="Layer_1" xmlns="http://www.w3.org/2000/svg" xmlns:xlink="http://www.w3.org/1999/xlink" x="0px" y="0px"
	 viewBox="0 0 201.789 249.4908" style="enable-background:new 0 0 201.789 249.4908;" xml:space="preserve">
<style type="text/css">
	.st0{fill:#FFFFFF;stroke:#000000;stroke-miterlimit:10;}
	.st1{fill:none;stroke:#000000;stroke-miterlimit:10;}
	.st2{fill:#FFFFFF;stroke:#010101;stroke-miterlimit:10;}
</style>
<polygon class="st0" points="115.223,224.9838 89.7445,225.9208 76.1938,204.3243 88.1215,181.7908 113.6,180.8537 
	127.1508,202.4502 "/>
<polygon class="st0" points="152.7439,201.2966 127.2654,202.2336 113.7147,180.6371 125.6424,158.1036 151.1209,157.1665 
	164.6717,178.763 "/>
<polygon class="st0" points="113.7147,180.6371 88.2362,181.5741 74.6855,159.9776 86.6132,137.4441 112.0917,136.5071 
	125.6424,158.1036 "/>
<polygon class="st0" points="111.8687,136.9283 86.3902,137.8654 72.8395,116.2689 84.7672,93.7353 110.2457,92.7983 
	123.7964,114.3948 "/>
<polygon class="st0" points="149.1703,113.6554 123.6918,114.5924 110.1411,92.9959 122.0688,70.4624 147.5473,69.5254 
	161.0981,91.1219 "/>
<polygon class="st0" points="187.646,90.1219 162.1675,91.0589 148.6167,69.4624 160.5445,46.9289 186.023,45.9918 
	199.5737,67.5883 "/>
<circle class="st0" cx="187.1047" cy="67.0013" r="6.6008"/>
<polyline class="st1" points="186.4968,12.4321 186.7375,46.8637 162.5208,22.9832 "/>
<circle class="st1" cx="159.7102" cy="20.2116" r="3.9472"/>
<circle class="st1" cx="186.6971" cy="8.3086" r="3.9472"/>
<polygon class="st0" points="77.7641,248.5538 52.2856,249.4908 38.7349,227.8943 50.6626,205.3608 76.1411,204.4238 
	89.6919,226.0203 "/>
<polygon class="st0" points="39.0292,227.5208 13.5507,228.4579 0,206.8614 11.9277,184.3278 37.4062,183.3908 50.957,204.9873 "/>
<circle class="st1" cx="188.5137" cy="68.3103" r="2.5872"/>
<polygon class="st2" points="82.5036,156.4615 92.6984,140.2133 111.8672,140.9183 120.841,157.8715 110.6461,174.1196 
	91.4774,173.4146 "/>
<polygon class="st2" points="120.0245,177.517 130.2193,161.2689 149.3881,161.9738 158.3619,178.927 148.167,195.1751 
	128.9983,194.4701 "/>
<polygon class="st2" points="82.5036,201.5286 92.6984,185.2805 111.8672,185.9854 120.841,202.9386 110.6461,219.1867 
	91.4774,218.4817 "/>
<polygon class="st2" points="45.0447,226.2523 55.2395,210.0042 74.4083,210.7091 83.3821,227.6623 73.1872,243.9104 
	54.0185,243.2054 "/>
<polygon class="st2" points="6.3098,203.7188 16.5046,187.4706 35.6734,188.1756 44.6472,205.1288 34.4523,221.3769 
	15.2836,220.6719 "/>
<polygon class="st2" points="117.7572,90.3539 127.9521,74.1057 147.1208,74.8107 156.0947,91.7639 145.8998,108.012 
	126.731,107.307 "/>
<polygon class="st2" points="79.1492,113.8874 89.3441,97.6393 108.5129,98.3442 117.4867,115.2974 107.2918,131.5455 
	88.123,130.8405 "/>
</svg>
