<?xml version="1.0" encoding="utf-8"?>
<!-- Generator: Adobe Illustrator 26.5.1, SVG Export Plug-In . SVG Version: 6.00 Build 0)  -->
<svg version="1.1" id="Layer_1" xmlns="http://www.w3.org/2000/svg" xmlns:xlink="http://www.w3.org/1999/xlink" x="0px" y="0px"
	 viewBox="0 0 268.3557 142.1698" style="enable-background:new 0 0 268.3557 142.1698;" xml:space="preserve">
<style type="text/css">
	.st0{fill:#FFFFFF;stroke:#010101;stroke-miterlimit:10;}
	.st1{fill:none;stroke:#010101;stroke-miterlimit:10;}
	.st2{fill:#FFFFFF;stroke:#020202;stroke-miterlimit:10;}
</style>
<polygon class="st0" points="13.6707,142.1698 0,120.649 11.8022,98.0495 37.2751,96.9706 50.9458,118.4915 39.1436,141.091 "/>
<polygon class="st0" points="112.1655,48.914 86.687,49.851 73.1362,28.2545 85.064,5.721 110.5425,4.784 124.0932,26.3804 "/>
<polygon class="st0" points="113.8608,93.1878 88.3823,94.1248 74.8315,72.5283 86.7593,49.9948 112.2378,49.0577 125.7885,70.6542 
	"/>
<polygon class="st0" points="151.8417,68.9028 126.3632,69.8399 112.8125,48.2434 124.7402,25.7099 150.2187,24.7728 
	163.7695,46.3693 "/>
<polygon class="st0" points="191.3808,88.4919 165.9024,89.4289 152.3516,67.8324 164.2794,45.2989 189.7579,44.3618 
	203.3086,65.9583 "/>
<polygon class="st0" points="230.4364,109.1652 204.9579,110.1023 191.4072,88.5058 203.3349,65.9722 228.8134,65.0352 
	242.3642,86.6317 "/>
<ellipse class="st0" cx="223.6525" cy="83.5063" rx="6.7667" ry="4.0625"/>
<polyline class="st1" points="249.9863,37.1614 229.8231,65.0726 224.4115,31.4952 "/>
<circle class="st1" cx="223.7834" cy="27.5983" r="3.9472"/>
<circle class="st1" cx="252.5857" cy="33.9543" r="3.9472"/>
<polygon class="st0" points="74.4661,72.768 48.9877,73.7051 35.4369,52.1086 47.3647,29.575 72.8431,28.638 86.3939,50.2345 "/>
<polygon class="st0" points="51.7574,118.457 38.0867,96.9363 49.8889,74.3368 75.3618,73.2579 89.0325,94.7787 77.2303,117.3783 
	"/>
<polygon class="st2" points="77.7615,27.9331 87.9563,11.6849 107.1251,12.3899 116.0989,29.343 105.904,45.5912 86.7353,44.8861 
	"/>
<polygon class="st2" points="82.0882,72.5529 92.283,56.3048 111.4518,57.0097 120.4256,73.9629 110.2307,90.211 91.062,89.506 "/>
<polygon class="st2" points="39.4241,51.732 49.6189,35.4838 68.7877,36.1888 77.7615,53.1419 67.5666,69.3901 48.3979,68.6851 "/>
<polygon class="st2" points="53.8478,80.0678 73.0201,80.666 82.0882,97.5689 71.9838,113.8736 52.8114,113.2752 43.7434,96.3723 
	"/>
<polygon class="st2" points="16.4048,99.6744 35.5773,100.2727 44.6453,117.1757 34.5409,133.4803 15.3685,132.882 6.3005,115.979 
	"/>
<polygon class="st2" points="119.1222,49.146 129.3171,32.8978 148.4859,33.6028 157.4597,50.556 147.2648,66.8041 128.096,66.0991 
	"/>
<polygon class="st2" points="158.6614,64.3677 168.8562,48.1195 188.025,48.8245 196.9988,65.7776 186.8039,82.0258 
	167.6352,81.3208 "/>
</svg>
