<?xml version="1.0" encoding="utf-8"?>
<!-- Generator: Adobe Illustrator 26.5.1, SVG Export Plug-In . SVG Version: 6.00 Build 0)  -->
<svg version="1.1" id="Layer_1" xmlns="http://www.w3.org/2000/svg" xmlns:xlink="http://www.w3.org/1999/xlink" x="0px" y="0px"
	 viewBox="0 0 304.8411 140.5099" style="enable-background:new 0 0 304.8411 140.5099;" xml:space="preserve">
<style type="text/css">
	.st0{fill:#FFFFFF;stroke:#000000;stroke-miterlimit:10;}
	.st1{fill:none;stroke:#000000;stroke-miterlimit:10;}
	.st2{fill:#FFFFFF;stroke:#010101;stroke-miterlimit:10;}
</style>
<polygon class="st0" points="40.2722,135.1388 14.7937,136.0759 1.243,114.4794 13.1707,91.9458 38.6492,91.0088 52.1999,112.6053 
	"/>
<polygon class="st0" points="152.8833,63.5686 127.4048,64.5056 113.854,42.9091 125.7818,20.3756 151.2603,19.4386 164.811,41.035 
	"/>
<polygon class="st0" points="115.466,87.0601 89.9875,87.9971 76.4367,66.4006 88.3645,43.8671 113.843,42.93 127.3937,64.5265 "/>
<polygon class="st0" points="192.085,84.3193 166.6065,85.2564 153.0558,63.6599 164.9835,41.1264 190.462,40.1893 
	204.0128,61.7858 "/>
<polygon class="st0" points="229.1058,60.6241 203.6274,61.5611 190.0766,39.9646 202.0044,17.4311 227.4829,16.494 
	241.0336,38.0905 "/>
<polygon class="st0" points="268.1614,81.2974 242.6829,82.2345 229.1322,60.638 241.0599,38.1044 266.5384,37.1674 
	280.0892,58.7639 "/>
<circle class="st0" cx="264.5817" cy="55.1385" r="3.5625"/>
<polyline class="st1" points="296.8446,28.0546 263.4949,36.6214 280.8045,7.345 "/>
<circle class="st1" cx="282.8133" cy="3.9472" r="3.9472"/>
<circle class="st1" cx="300.8939" cy="27.251" r="3.9472"/>
<polygon class="st0" points="76.6092,66.4919 51.1308,67.429 37.58,45.8325 49.5078,23.2989 74.9862,22.3619 88.537,43.9584 "/>
<polygon class="st0" points="39.0292,90.2908 13.5507,91.2279 0,69.6314 11.9277,47.0978 37.4062,46.1608 50.957,67.7573 "/>
<polygon class="st2" points="120.1638,42.2251 130.3586,25.9769 149.5274,26.6819 158.5012,43.635 148.3063,59.8832 
	129.1376,59.1781 "/>
<polygon class="st2" points="81.3099,63.8006 91.5047,47.5525 110.6735,48.2574 119.6473,65.2106 109.4524,81.4587 90.2837,80.7537 
	"/>
<polygon class="st2" points="45.8902,45.4559 56.085,29.2077 75.2538,29.9127 84.2276,46.8658 74.0327,63.114 54.864,62.409 "/>
<polygon class="st2" points="5.9251,66.724 16.1199,50.4759 35.2887,51.1808 44.2625,68.134 34.0676,84.3821 14.8989,83.6771 "/>
<polygon class="st2" points="7.5527,112.8374 17.7476,96.5892 36.9164,97.2942 45.8902,114.2474 35.6953,130.4955 16.5265,129.7905 
	"/>
<polygon class="st2" points="159.0942,62.409 169.2891,46.1608 188.4579,46.8658 197.4317,63.819 187.2368,80.0671 168.068,79.3621 
	"/>
<polygon class="st2" points="193.7464,39.4844 203.9412,23.2362 223.11,23.9412 232.0838,40.8943 221.8889,57.1425 
	202.7202,56.4375 "/>
</svg>
