<?xml version="1.0" encoding="utf-8"?>
<!-- Generator: Adobe Illustrator 26.5.1, SVG Export Plug-In . SVG Version: 6.00 Build 0)  -->
<svg version="1.1" id="Layer_2" xmlns="http://www.w3.org/2000/svg" xmlns:xlink="http://www.w3.org/1999/xlink" x="0px" y="0px"
	 viewBox="0 0 510.9 109.1" style="enable-background:new 0 0 510.9 109.1;" xml:space="preserve">
<style type="text/css">
	.st0{fill:#FFFFFF;stroke:#000000;stroke-miterlimit:10;}
	.st1{fill:none;stroke:#000000;stroke-miterlimit:10;}
</style>
<g id="Layer_1">
	<rect y="46" class="st0" width="510.9" height="63"/>
	<line class="st1" x1="0.1" y1="46.1" x2="21.6" y2="39.8"/>
	<line class="st1" x1="46.9" y1="46.1" x2="21.6" y2="39.8"/>
	<line class="st1" x1="115.9" y1="46.1" x2="141.5" y2="38.9"/>
	<line class="st1" x1="204.6" y1="46.1" x2="141.5" y2="38.9"/>
	<line class="st1" x1="34.3" y1="42.5" x2="116.7" y2="22.5"/>
	<line class="st1" x1="263.7" y1="46.1" x2="116.7" y2="22.5"/>
	<line class="st1" x1="323.6" y1="46.1" x2="417.6" y2="29.4"/>
	<line class="st1" x1="510.9" y1="46.1" x2="417.6" y2="29.4"/>
	<line class="st1" x1="204.4" y1="36.6" x2="305.6" y2="19.5"/>
	<line class="st1" x1="305.6" y1="19.5" x2="369.5" y2="37.9"/>
	<line class="st1" x1="43.1" y1="81.2" x2="30.1" y2="75.5"/>
	<line class="st1" x1="47.4" y1="73.8" x2="25.9" y2="84.3"/>
	<line class="st1" x1="228.3" y1="85.7" x2="250.7" y2="96.8"/>
	<line class="st1" x1="233.9" y1="98.9" x2="245.1" y2="89.9"/>
	<line class="st1" x1="383.2" y1="56.7" x2="373" y2="63.1"/>
	<line class="st1" x1="373" y1="56.7" x2="391.2" y2="64.5"/>
	<line class="st1" x1="284.9" y1="102.3" x2="286.3" y2="102.3"/>
	<line class="st1" x1="355" y1="92.2" x2="356.8" y2="92.2"/>
	<line class="st1" x1="275.2" y1="66.5" x2="278.8" y2="67.4"/>
	<line class="st1" x1="423.3" y1="89.6" x2="425" y2="89.2"/>
	<line class="st1" x1="92.8" y1="71.7" x2="82.6" y2="67"/>
	<line class="st1" x1="77.9" y1="82.1" x2="76.2" y2="81.9"/>
	<line class="st1" x1="74.5" y1="92.6" x2="73" y2="90.6"/>
	<line class="st1" x1="21.6" y1="39.8" x2="14.8" y2="46"/>
	<line class="st1" x1="28.2" y1="41.4" x2="34.6" y2="7.9"/>
	<line class="st1" x1="141.5" y1="38.9" x2="138.8" y2="46"/>
	<line class="st1" x1="116.7" y1="22.5" x2="90.5" y2="46.1"/>
	<line class="st1" x1="34.6" y1="7.9" x2="77.9" y2="30.6"/>
	<line class="st1" x1="116.7" y1="22.5" x2="45.2" y2="45.7"/>
	<line class="st1" x1="77.9" y1="30.6" x2="80" y2="31.4"/>
	<line class="st1" x1="34.6" y1="7.9" x2="13.6" y2="42.1"/>
	<line class="st1" x1="36.6" y1="42.4" x2="34.3" y2="42.5"/>
	<line class="st1" x1="305.6" y1="19.5" x2="248.7" y2="43.7"/>
	<line class="st1" x1="417.6" y1="29.4" x2="402.3" y2="46"/>
	<line class="st1" x1="360.6" y1="35.4" x2="378.1" y2="23.8"/>
	<line class="st1" x1="394.4" y1="33.5" x2="378.1" y2="23.8"/>
	<line class="st1" x1="369.5" y1="37.9" x2="378.1" y2="23.8"/>
	<circle class="st1" cx="71.9" cy="11.8" r="7.1"/>
	<path class="st1" d="M171.6,31.7c0.5,0,1,0,1.5,0.1c4.1,0.8,8.2,1.5,12.3,2.2c1.5,0.2,3,0.4,4.4,0.6c1.4,0.3,2.8,0.5,4.3,0.7
		c4.2,0.5,8.3,1,12.4,1.7c0.5-1.8,0.8-3.7,0.8-5.7c0-11-8.9-19.9-19.9-19.9c-10.7,0-19.3,8.4-19.8,19c0.6,0,1.3,0.2,2,0.5
		C170.3,31.2,171,31.5,171.6,31.7z"/>
</g>
</svg>
