<?xml version="1.0" encoding="utf-8"?>
<!-- Generator: Adobe Illustrator 26.5.1, SVG Export Plug-In . SVG Version: 6.00 Build 0)  -->
<svg version="1.1" xmlns="http://www.w3.org/2000/svg" xmlns:xlink="http://www.w3.org/1999/xlink" x="0px" y="0px"
	 viewBox="0 0 510.9 105" style="enable-background:new 0 0 510.9 105;" xml:space="preserve">
<style type="text/css">
	.st0{fill:none;stroke:#000000;stroke-miterlimit:10;}
	.st1{fill:#FFFFFF;stroke:#010101;stroke-miterlimit:10;}
	.st2{fill:none;stroke:#010101;stroke-miterlimit:10;}
</style>
<g id="Layer_2">
	<path class="st0" d="M441.2,8.9c-2.6,0-4.9,1.2-6.3,3c0.8,0.3,1.4,0.7,1.9,1.3c0.2,0.1,0.3,0.1,0.5,0.2c0.5,0.1,0.9,0.3,1.3,0.6
		c3.2,1.4,6.4,2.8,9.5,4.3c0.4-0.8,0.6-1.7,0.6-2.6C448.8,11.9,445.4,8.9,441.2,8.9z"/>
	<circle class="st0" cx="12.6" cy="11.6" r="1.7"/>
	<path class="st0" d="M67,9.8c-3.4,0-6.4,1.8-8.1,4.5c0.2,0.1,0.4,0.3,0.5,0.4c1.2,1,2.4,1.9,3.7,2.9c1.1,0.5,2.1,0.9,3.1,1.5
		c1.6,0.9,3,2.3,4.7,3.1c1.5,0.7,3,1.2,4.4,2c0.8-1.4,1.2-3,1.2-4.7C76.7,14.1,72.4,9.8,67,9.8z"/>
</g>
<g id="Layer_1">
	<rect y="42" class="st1" width="510.9" height="63"/>
	<line class="st2" x1="0.1" y1="42.1" x2="8.7" y2="33"/>
	<line class="st2" x1="18.8" y1="42.1" x2="8.7" y2="33"/>
	<line class="st2" x1="46.4" y1="42.1" x2="56.7" y2="31.6"/>
	<line class="st2" x1="81.9" y1="42.1" x2="56.7" y2="31.6"/>
	<line class="st2" x1="13.8" y1="36.9" x2="46.7" y2="7.8"/>
	<line class="st2" x1="105.5" y1="42.1" x2="46.7" y2="7.8"/>
	<line class="st2" x1="129.5" y1="42.1" x2="167.1" y2="17.9"/>
	<line class="st2" x1="204.4" y1="42.1" x2="167.1" y2="17.9"/>
	<line class="st2" x1="81.8" y1="28.3" x2="122.3" y2="3.5"/>
	<line class="st2" x1="122.3" y1="3.5" x2="147.8" y2="30.2"/>
	<line class="st2" x1="43.1" y1="77.2" x2="30.1" y2="71.5"/>
	<line class="st2" x1="47.4" y1="69.8" x2="25.9" y2="80.3"/>
	<line class="st2" x1="228.3" y1="81.7" x2="250.7" y2="92.8"/>
	<line class="st2" x1="233.9" y1="94.9" x2="245.1" y2="85.9"/>
	<line class="st2" x1="383.2" y1="52.7" x2="373" y2="59.1"/>
	<line class="st2" x1="373" y1="52.7" x2="391.2" y2="60.5"/>
	<line class="st2" x1="284.9" y1="98.3" x2="286.3" y2="98.3"/>
	<line class="st2" x1="355" y1="88.2" x2="356.8" y2="88.2"/>
	<line class="st2" x1="275.2" y1="62.5" x2="278.8" y2="63.4"/>
	<line class="st2" x1="423.3" y1="85.6" x2="425" y2="85.2"/>
	<line class="st2" x1="92.8" y1="67.7" x2="82.6" y2="63"/>
	<line class="st2" x1="77.9" y1="78.1" x2="76.2" y2="77.9"/>
	<line class="st2" x1="74.5" y1="88.6" x2="73" y2="86.6"/>
	<line class="st2" x1="204.3" y1="41.5" x2="208" y2="32.4"/>
	<line class="st2" x1="212.3" y1="41.5" x2="208" y2="32.4"/>
	<line class="st2" x1="224.1" y1="41.5" x2="228.5" y2="31.1"/>
	<line class="st2" x1="239.3" y1="41.5" x2="228.5" y2="31.1"/>
	<line class="st2" x1="210.2" y1="36.3" x2="224.3" y2="7.3"/>
	<line class="st2" x1="249.4" y1="41.5" x2="224.3" y2="7.3"/>
	<line class="st2" x1="259.7" y1="41.5" x2="275.8" y2="17.3"/>
	<line class="st2" x1="291.8" y1="41.5" x2="275.8" y2="17.3"/>
	<line class="st2" x1="239.3" y1="27.7" x2="256.6" y2="2.9"/>
	<line class="st2" x1="256.6" y1="2.9" x2="267.6" y2="29.6"/>
	<line class="st2" x1="292.4" y1="42.1" x2="301.5" y2="33"/>
	<line class="st2" x1="312.3" y1="42.1" x2="301.5" y2="33"/>
	<line class="st2" x1="341.6" y1="42.1" x2="352.4" y2="31.7"/>
	<line class="st2" x1="379.2" y1="42.1" x2="352.4" y2="31.7"/>
	<line class="st2" x1="306.9" y1="36.9" x2="341.9" y2="7.9"/>
	<line class="st2" x1="404.3" y1="42.1" x2="341.9" y2="7.9"/>
	<line class="st2" x1="429.7" y1="42.1" x2="469.6" y2="17.9"/>
	<line class="st2" x1="509.2" y1="42.1" x2="469.6" y2="17.9"/>
	<line class="st2" x1="384.1" y1="31.4" x2="424.6" y2="6.5"/>
	<line class="st2" x1="423.6" y1="6.5" x2="446.2" y2="30.2"/>
	<line class="st0" x1="8.7" y1="33" x2="5.2" y2="42"/>
	<line class="st0" x1="56.7" y1="31.6" x2="56.7" y2="42"/>
	<line class="st0" x1="46.7" y1="7.8" x2="21.9" y2="42"/>
	<line class="st0" x1="8.7" y1="33" x2="11.8" y2="42"/>
	<line class="st0" x1="46.7" y1="8.8" x2="46.4" y2="42.1"/>
	<line class="st0" x1="122.3" y1="3.5" x2="111.6" y2="41.5"/>
	<line class="st0" x1="167.1" y1="17.9" x2="149.1" y2="42.1"/>
	<line class="st0" x1="208" y1="32.4" x2="208" y2="42.1"/>
	<line class="st0" x1="228.5" y1="31.1" x2="228.5" y2="41"/>
	<line class="st0" x1="224.3" y1="7.3" x2="189.4" y2="32.4"/>
	<line class="st0" x1="256.6" y1="2.9" x2="245.1" y2="35.6"/>
	<line class="st0" x1="249.4" y1="41.5" x2="259.7" y2="41.5"/>
	<line class="st0" x1="275.8" y1="17.3" x2="299.9" y2="33.8"/>
	<line class="st0" x1="301.5" y1="33" x2="297" y2="41.5"/>
	<line class="st0" x1="341.9" y1="7.9" x2="321.3" y2="41.5"/>
	<line class="st0" x1="300.9" y1="34.2" x2="296" y2="31.1"/>
	<line class="st0" x1="352.4" y1="31.7" x2="352.4" y2="41.5"/>
	<line class="st0" x1="341.9" y1="7.9" x2="345.5" y2="38.3"/>
	<line class="st0" x1="424.6" y1="6.5" x2="458.5" y2="24.7"/>
	<line class="st0" x1="445.1" y1="29" x2="447.5" y2="31.4"/>
	<line class="st0" x1="424.6" y1="6.5" x2="398.6" y2="39"/>
	<line class="st0" x1="469.6" y1="17.9" x2="455.8" y2="41.5"/>
	<line class="st0" x1="479.6" y1="23.1" x2="482.1" y2="12"/>
	<line class="st0" x1="491.6" y1="31.4" x2="482.1" y2="12"/>
	<path class="st0" d="M479.4,24.2c0.2-1.1,0.5-2.2,0.7-3.3"/>
	<line class="st0" x1="482.1" y1="12" x2="451.2" y2="20.8"/>
	<circle class="st0" cx="369.2" cy="11.4" r="6.2"/>
</g>
</svg>
