<?xml version="1.0" encoding="utf-8"?>
<!-- Generator: Adobe Illustrator 26.5.1, SVG Export Plug-In . SVG Version: 6.00 Build 0)  -->
<svg version="1.1" id="Layer_1" xmlns="http://www.w3.org/2000/svg" xmlns:xlink="http://www.w3.org/1999/xlink" x="0px" y="0px"
	 viewBox="0 0 510.9 109.1" style="enable-background:new 0 0 510.9 109.1;" xml:space="preserve">
<style type="text/css">
	.st0{fill:#FFFFFF;stroke:#000000;stroke-miterlimit:10;}
	.st1{fill:none;stroke:#000000;stroke-miterlimit:10;}
</style>
<rect y="46" class="st0" width="510.9" height="63"/>
<line class="st1" x1="0.1" y1="46.1" x2="8.7" y2="37"/>
<line class="st1" x1="18.8" y1="46.1" x2="8.7" y2="37"/>
<line class="st1" x1="46.4" y1="46.1" x2="56.7" y2="35.6"/>
<line class="st1" x1="81.9" y1="46.1" x2="56.7" y2="35.6"/>
<line class="st1" x1="13.8" y1="40.9" x2="46.7" y2="11.8"/>
<line class="st1" x1="105.5" y1="46.1" x2="46.7" y2="11.8"/>
<line class="st1" x1="129.5" y1="46.1" x2="167.1" y2="21.9"/>
<line class="st1" x1="204.4" y1="46.1" x2="167.1" y2="21.9"/>
<line class="st1" x1="81.8" y1="32.3" x2="122.3" y2="7.5"/>
<line class="st1" x1="122.3" y1="7.5" x2="147.8" y2="34.2"/>
<line class="st1" x1="43.1" y1="81.2" x2="30.1" y2="75.5"/>
<line class="st1" x1="47.4" y1="73.8" x2="25.9" y2="84.3"/>
<line class="st1" x1="228.3" y1="85.7" x2="250.7" y2="96.8"/>
<line class="st1" x1="233.9" y1="98.9" x2="245.1" y2="89.9"/>
<line class="st1" x1="383.2" y1="56.7" x2="373" y2="63.1"/>
<line class="st1" x1="373" y1="56.7" x2="391.2" y2="64.5"/>
<line class="st1" x1="284.9" y1="102.3" x2="286.3" y2="102.3"/>
<line class="st1" x1="355" y1="92.2" x2="356.8" y2="92.2"/>
<line class="st1" x1="275.2" y1="66.5" x2="278.8" y2="67.4"/>
<line class="st1" x1="423.3" y1="89.6" x2="425" y2="89.2"/>
<line class="st1" x1="92.8" y1="71.7" x2="82.6" y2="67"/>
<line class="st1" x1="77.9" y1="82.1" x2="76.2" y2="81.9"/>
<line class="st1" x1="74.5" y1="92.6" x2="73" y2="90.6"/>
<line class="st1" x1="247.3" y1="45.5" x2="255.9" y2="36.4"/>
<line class="st1" x1="266" y1="45.5" x2="255.9" y2="36.4"/>
<line class="st1" x1="293.6" y1="45.5" x2="303.9" y2="35.1"/>
<line class="st1" x1="329.1" y1="45.5" x2="303.9" y2="35.1"/>
<line class="st1" x1="261" y1="40.3" x2="293.9" y2="11.2"/>
<line class="st1" x1="352.7" y1="45.5" x2="293.9" y2="11.2"/>
<line class="st1" x1="376.7" y1="45.5" x2="414.3" y2="21.3"/>
<line class="st1" x1="451.6" y1="45.5" x2="414.3" y2="21.3"/>
<line class="st1" x1="329" y1="31.7" x2="369.5" y2="6.9"/>
<line class="st1" x1="369.5" y1="6.9" x2="395.1" y2="33.6"/>
<line class="st1" x1="8.7" y1="37" x2="5.7" y2="46"/>
<line class="st1" x1="56.7" y1="35.6" x2="34.7" y2="46"/>
<line class="st1" x1="46.7" y1="11.8" x2="24.5" y2="46"/>
<line class="st1" x1="122.3" y1="7.5" x2="98" y2="41.7"/>
<line class="st1" x1="167.1" y1="21.9" x2="153.7" y2="46"/>
<line class="st1" x1="122.3" y1="7.5" x2="66.8" y2="23.6"/>
<line class="st1" x1="255.9" y1="36.4" x2="234.9" y2="45.5"/>
<line class="st1" x1="247.3" y1="45.5" x2="246.4" y2="46"/>
<line class="st1" x1="234.9" y1="45.5" x2="233.9" y2="45.5"/>
<line class="st1" x1="266" y1="45.5" x2="267" y2="46.1"/>
<line class="st1" x1="293.9" y1="11.2" x2="278.3" y2="46"/>
<line class="st1" x1="303.9" y1="35.1" x2="301.6" y2="45.8"/>
<line class="st1" x1="369.5" y1="6.9" x2="352.7" y2="45.5"/>
<line class="st1" x1="414.3" y1="21.3" x2="403.1" y2="45.5"/>
<line class="st1" x1="369.5" y1="6.9" x2="367.5" y2="46"/>
<line class="st1" x1="317.2" y1="24.8" x2="329.7" y2="16.3"/>
<line class="st1" x1="369.5" y1="6.9" x2="334" y2="34.6"/>
<line class="st1" x1="329.7" y1="16.3" x2="347.7" y2="20.2"/>
<line class="st1" x1="303.9" y1="35.1" x2="308.3" y2="46.4"/>
<line class="st1" x1="329.7" y1="16.3" x2="326.4" y2="30.1"/>
<circle class="st1" cx="204.7" cy="17.8" r="6.6"/>
<path class="st1" d="M212.4,4.2c-4.2,0-7.6,3.2-8,7.3c0.2,0,0.4,0,0.7,0c1.2,0,2.2,0.4,2.9,0.9c0.7,0.3,1.2,0.7,1.6,1.3
	c1.8,1.5,2.2,4.2,1.3,6.3c0.5,0.1,1,0.2,1.5,0.2c4.4,0,8-3.6,8-8C220.4,7.7,216.8,4.2,212.4,4.2z"/>
<circle class="st1" cx="401.5" cy="15.5" r="5.2"/>
<circle class="st1" cx="469.9" cy="22.8" r="13.6"/>
</svg>
